<?xml version="1.0" encoding="utf-8"?>
<!-- Generator: Adobe Illustrator 22.0.1, SVG Export Plug-In . SVG Version: 6.00 Build 0)  -->
<svg version="1.1" id="Layer_1" xmlns="http://www.w3.org/2000/svg" xmlns:xlink="http://www.w3.org/1999/xlink" x="0px" y="0px"
	 viewBox="0 0 1136 369.8" style="enable-background:new 0 0 1136 369.8;" xml:space="preserve">
<style type="text/css">
	.st0{fill:#FAFAFA;}
	.st1{fill:#FFFFFF;}
</style>
<polygon class="st0" points="753,173.1 753,181.6 751.9,181.6 751.9,173.1 749.1,173.1 749.1,172.2 755.7,172.2 755.7,173.1 "/>
<polygon class="st0" points="760.5,181.6 760.5,173.1 760.5,173.1 757.9,181.6 757.1,181.6 754.4,173.1 754.4,173.1 754.4,181.6 
	753.5,181.6 753.5,172.2 755,172.2 757.4,179.8 757.5,179.8 759.8,172.2 761.4,172.2 761.4,181.6 "/>
<path class="st1" d="M393.2,110.2c-1.3-3.6-2.4-7.1-3.3-10.8h-0.3c0,0.5-1.2,4.1-3.5,10.8H393.2z M402.2,121.2H396
	c-0.4-2.5-1-4.9-1.7-7.2h-9c-0.9,2.3-1.4,4.8-1.8,7.2h-5.9c0-0.5,1.5-4.6,4.5-12.4c1.8-4.1,3.4-8.5,4.5-12.8h7.3
	c1.1,4.3,2.5,8.5,4.1,12.6C399.8,112.7,401.1,117,402.2,121.2L402.2,121.2z"/>
<path class="st1" d="M427.3,121.2h-4.8c-1.4-3-3.3-5.8-5.3-8.4c-2.6-3.4-4.7-7-6.4-11h-0.3c0.3,2.5,0.5,5.1,0.5,7.7
	c0,3.2,0.1,7,0.3,11.7h-4.7c0.2-4.1,0.3-8.4,0.3-13.2s-0.1-8.8-0.3-12.1h5.8c1.3,2.9,2.9,5.7,4.8,8.2c2.3,3.2,4.2,6.7,5.7,10.3h0.3
	c-0.3-2.6-0.5-5.2-0.5-7.7c0-3.5-0.1-7.1-0.3-10.8h5c-0.2,3.2-0.3,7.2-0.3,12.1S427.1,117.3,427.3,121.2z"/>
<path class="st1" d="M450.1,108.6c0-2.3-0.8-4.5-2.3-6.3c-1.7-1.8-4.1-2.7-6.7-2.6c-0.8,0-1.5,0.1-2.3,0.2c0.1,2.6,0.2,5.3,0.2,8.1
	c0,3.1,0.1,6.1,0.2,9.2c0.9,0.2,1.6,0.3,2.5,0.3c2.3,0.2,4.6-0.8,6.2-2.6c1.4-1.8,2.1-4.1,2-6.3L450.1,108.6z M455.4,107.7
	c0.1,3.6-1.3,6.9-3.6,9.6c-2.5,2.8-6.2,4.3-9.9,4.1c-1.9,0-4.5-0.1-7.9-0.2c0.2-4,0.3-8.3,0.3-13.2c0-4.9-0.1-8.9-0.3-12.1h3.4h2.5
	h2.1c4.6,0,8.1,1.2,10.1,3.5c2.1,2.3,3.2,5.3,3.2,8.4L455.4,107.7C455.3,107.7,455.4,107.7,455.4,107.7z"/>
<path class="st1" d="M474,103.4c0-2.6-1.6-3.9-4.9-3.9c-1.1,0-2.1,0.1-3.2,0.3c0.1,2,0.2,4.6,0.2,7.8h1.8
	C472,107.6,474,106.2,474,103.4L474,103.4z M481.2,121.2h-5.7c-0.8-3-1.9-5.8-3.5-8.5c-1-1.2-2.4-1.7-3.9-1.6h-2.1
	c0,3.3,0.1,6.7,0.2,10h-5.4c0.2-4,0.3-8.3,0.3-13.2c0-4.9-0.1-8.9-0.3-12.1h3.4h2.4h3.5c6,0,8.9,2,8.9,6.1c0,3.2-2.1,5.9-5.1,6.7
	v0.3c1.5,0.6,2.7,1.6,3.5,3.1C478.8,115,480.2,118.1,481.2,121.2L481.2,121.2z"/>
<path class="st1" d="M503.7,108.8c0.1-2.4-0.7-4.7-2.1-6.6c-1.3-1.6-3.1-2.6-5.1-2.6c-1.9,0-3.8,1-4.8,2.5c-1.4,1.8-2,4.1-2,6.5
	c-0.1,2.3,0.7,4.7,2.1,6.6c1.3,1.6,3.1,2.5,5.1,2.5c1.9,0,3.8-1,4.8-2.6C503.1,113.2,503.8,111,503.7,108.8L503.7,108.8z
	 M509.1,108.2c0.1,3.7-1.2,7.1-3.7,9.8c-2.3,2.6-5.6,4-9.1,4c-3.3,0.1-6.4-1.3-8.6-3.6c-2.3-2.5-3.6-5.8-3.5-9.2
	c-0.1-3.7,1.2-7.1,3.7-9.8c2.3-2.6,5.6-4,9.1-4c3.3-0.1,6.4,1.3,8.6,3.6C508,101.5,509.2,104.8,509.1,108.2L509.1,108.2z"/>
<path class="st1" d="M520,121.2h-5.5c0.2-4.1,0.3-8.4,0.3-13.2s-0.1-8.8-0.3-12.1h5.5c-0.2,3.3-0.3,7.2-0.3,12.1
	S519.9,117.2,520,121.2z"/>
<path class="st1" d="M542.9,108.6c0-2.3-0.8-4.5-2.3-6.3c-1.7-1.8-4.1-2.7-6.7-2.6c-0.8,0-1.5,0.1-2.3,0.2c0.1,2.6,0.2,5.3,0.2,8.1
	c0,3.1,0.1,6.1,0.2,9.2c0.9,0.2,1.6,0.3,2.5,0.3c2.3,0.2,4.6-0.8,6.2-2.6C542.1,113,542.9,110.8,542.9,108.6L542.9,108.6z
	 M548.2,107.7c0,3.6-1.3,6.9-3.6,9.6c-2.5,2.8-6.2,4.3-9.9,4.1c-1.9,0-4.5-0.1-7.9-0.2c0.2-4,0.3-8.3,0.3-13.2
	c0-4.9-0.1-8.9-0.3-12.1h3.3h2.5h2.1c4.6,0,8.1,1.2,10.1,3.5c2.1,2.3,3.2,5.3,3.2,8.4L548.2,107.7z"/>
<path class="st1" d="M576.6,110.2c-1.3-3.6-2.4-7.1-3.3-10.8H573c-1,3.7-2.1,7.2-3.5,10.8H576.6z M585.4,121.2h-6.2
	c-0.4-2.5-1-4.9-1.7-7.2h-9c-0.9,2.3-1.4,4.8-1.8,7.2h-5.9c0-0.5,1.5-4.6,4.5-12.4c1.8-4.1,3.4-8.5,4.5-12.8h7.3
	c1.1,4.3,2.5,8.5,4.1,12.6C583.1,112.7,584.5,117,585.4,121.2L585.4,121.2z"/>
<path class="st1" d="M603.2,103.6c0-2.7-1.8-4.1-5.6-4.1c-1,0-1.9,0.1-2.9,0.3c0.1,2.4,0.2,5.2,0.2,8.3h1.2
	C600.8,108.2,603.1,106.6,603.2,103.6C603.1,103.6,603.2,103.6,603.2,103.6z M608.2,102.6c0.2,2.7-1.2,5.4-3.5,6.9
	c-2.5,1.5-5.5,2.3-8.5,2.3H595c0,2.4,0.1,5.6,0.2,9.6h-5.5c0.2-3.8,0.3-8.1,0.3-13.2c0-4.6-0.1-8.7-0.3-12.1h3.4h2.8h3.6
	c2.2-0.1,4.3,0.5,6.3,1.6c1.7,1.2,2.7,3.1,2.5,5.1L608.2,102.6z"/>
<path class="st1" d="M626.4,103.6c0-2.8-1.8-4.1-5.5-4.1c-1,0-1.9,0.1-2.9,0.3c0.1,2.4,0.2,5.2,0.2,8.3h1.2
	C624,108.1,626.4,106.5,626.4,103.6L626.4,103.6z M631.4,102.6c0.2,2.7-1.2,5.4-3.5,6.9c-2.5,1.5-5.5,2.3-8.5,2.3h-1.3
	c0,2.4,0.1,5.6,0.2,9.6h-5.5c0.2-3.8,0.3-8.1,0.3-13.2c0-4.6-0.1-8.7-0.3-12.1h3.4h2.8h3.6c2.2-0.1,4.3,0.5,6.3,1.6
	c1.7,1.2,2.7,3.1,2.5,5.1L631.4,102.6z"/>
<path class="st1" d="M664.1,108.8c0.1-2.4-0.7-4.7-2.1-6.6c-1.3-1.6-3.1-2.5-5.1-2.5c-1.9,0-3.8,1-4.8,2.5c-1.4,1.8-2,4.1-2,6.5
	c-0.1,2.3,0.7,4.7,2.1,6.6c1.3,1.6,3.1,2.5,5.1,2.5c1.9,0,3.8-1,4.8-2.6C663.5,113.3,664.2,111.1,664.1,108.8L664.1,108.8z
	 M669.5,108.2c0.1,3.7-1.2,7.1-3.7,9.8c-2.3,2.6-5.6,4-9.1,4c-3.3,0.1-6.4-1.3-8.6-3.6c-2.3-2.5-3.6-5.8-3.5-9.2
	c-0.1-3.7,1.2-7.1,3.7-9.8c2.3-2.6,5.7-4.1,9.2-4c3.3-0.1,6.4,1.3,8.6,3.6C668.4,101.5,669.7,104.8,669.5,108.2L669.5,108.2z"/>
<path class="st1" d="M695.7,121.2h-4.8c-1.4-3-3.3-5.8-5.3-8.4c-2.6-3.4-4.7-7-6.4-11h-0.3c0.3,2.5,0.5,5.1,0.5,7.7
	c0,3.2,0.1,7,0.3,11.7H675c0.2-4.1,0.3-8.4,0.3-13.2s-0.1-8.8-0.3-12.1h5.8c1.3,2.9,2.9,5.7,4.8,8.2c2.4,3.2,4.3,6.7,5.9,10.3h0.3
	c-0.3-2.6-0.5-5.2-0.5-7.7c0-3.5-0.1-7.1-0.3-10.8h4.8c-0.2,3.2-0.3,7.2-0.3,12.1S695.5,117.3,695.7,121.2L695.7,121.2z"/>
<path class="st1" d="M1065.5,24.5H69.6C48.9,24.5,32.1,41.3,32,62v242.4c0,20.7,16.8,37.5,37.5,37.6h995.9
	c20.8,0,37.8-16.7,38.1-37.6V62.1C1103.3,41.2,1086.3,24.5,1065.5,24.5z M1065.5,334.8H69.6c-16.8,0-30.4-13.6-30.5-30.4l0,0V62
	c0-16.8,13.7-30.4,30.5-30.4h995.9c16.8,0,30.4,13.6,30.4,30.4l0,0v242.4C1095.9,321.2,1082.2,334.8,1065.5,334.8L1065.5,334.8
	L1065.5,334.8z"/>
<g>
	<path class="st1" d="M117.8,81.2c-2.5,2.5-3.3,6.7-3.3,11.6v183.8c0,5,1.7,9.2,4.2,11.6l0.8,0.8L222.6,186v-1.7L117.8,81.2z"/>
	<path class="st1" d="M255.9,220.9l-34.1-34.1v-2.5l34.1-34.1l0.8,0.8l40.8,23.3c11.6,6.7,11.6,17.5,0,24.1L255.9,220.9z"/>
	<path class="st1" d="M256.7,220.1l-34.9-34.9l-104,104c4.2,4.2,10,4.2,17.5,0.8L256.7,220.1"/>
	<path class="st1" d="M256.7,150.2l-121.4-69c-7.5-4.2-13.3-3.3-17.5,0.8l104,103.1l54.4-23.1L256.7,150.2z"/>
</g>
<path class="st1" d="M564.3,183.8c-17.8,0-31.9,13.4-31.9,31.9c0,17.8,14.1,31.9,31.9,31.9s31.9-13.4,31.9-31.9
	C596.3,196.5,582.2,183.8,564.3,183.8z M564.3,234.3c-9.7,0-17.8-8.2-17.8-19.3c0-11.1,8.2-19.3,17.8-19.3s17.8,7.4,17.8,19.3
	C582.2,226.2,574,234.3,564.3,234.3z M495.3,183.8c-17.8,0-31.9,13.4-31.9,31.9c0,17.8,14.1,31.9,31.9,31.9s31.9-13.4,31.9-31.9
	C527.2,196.5,513.1,183.8,495.3,183.8z M495.3,234.3c-9.7,0-17.8-8.2-17.8-19.3c0-11.1,8.2-19.3,17.8-19.3c9.7,0,17.8,7.4,17.8,19.3
	C513.1,226.2,504.9,234.3,495.3,234.3z M412.9,193.5v13.4h31.9c-0.7,7.4-3.7,13.4-7.4,17.1c-4.5,4.5-11.9,9.7-24.5,9.7
	c-20,0-34.9-15.6-34.9-35.6s15.6-35.6,34.9-35.6c10.4,0,18.6,4.5,24.5,9.7l9.7-9.7c-8.2-7.4-18.6-13.4-33.4-13.4
	c-26.7,0-49.7,22.3-49.7,49s23,49,49.7,49c14.8,0,25.2-4.5,34.2-14.1c8.9-8.9,11.9-21.5,11.9-31.2c0-3,0-5.9-0.7-8.2L412.9,193.5
	L412.9,193.5z M750,203.9c-3-7.4-10.4-20-26.7-20s-29.7,12.6-29.7,31.9c0,17.8,13.4,31.9,31.2,31.9c14.1,0,23-8.9,26-14.1l-10.4-7.4
	c-3.7,5.2-8.2,8.9-15.6,8.9c-7.4,0-11.9-3-15.6-9.7l42.3-17.8L750,203.9L750,203.9z M706.9,214.3c0-11.9,9.7-18.6,16.3-18.6
	c5.2,0,10.4,3,11.9,6.7L706.9,214.3L706.9,214.3z M672,244.7h14.1v-92.8H672V244.7z M649.7,190.5c-3.7-3.7-9.7-7.4-17.1-7.4
	c-15.6,0-30.4,14.1-30.4,31.9s14.1,31.2,30.4,31.2c7.4,0,13.4-3.7,16.3-7.4h0.7v4.5c0,11.9-6.7,18.6-17.1,18.6
	c-8.2,0-14.1-5.9-15.6-11.1l-11.9,5.2c3.7,8.2,12.6,18.6,28.2,18.6c16.3,0,29.7-9.7,29.7-32.7v-56.4h-13.4L649.7,190.5L649.7,190.5z
	 M633.4,234.3c-9.7,0-17.8-8.2-17.8-19.3c0-11.1,8.2-19.3,17.8-19.3c9.7,0,17.1,8.2,17.1,19.3C650.5,226.2,643.1,234.3,633.4,234.3z
	 M814.6,151.9h-33.4v92.8h14.1v-34.9h19.3c15.6,0,30.4-11.1,30.4-29S830.2,151.9,814.6,151.9z M815.3,196.5h-20v-31.9h20
	c10.4,0,16.3,8.9,16.3,15.6C830.9,188.3,825,196.5,815.3,196.5L815.3,196.5z M900.7,183.1c-10.4,0-20.8,4.5-24.5,14.1l12.6,5.2
	c3-5.2,7.4-6.7,12.6-6.7c7.4,0,14.1,4.5,14.8,11.9v0.7c-2.2-1.5-8.2-3.7-14.1-3.7c-13.4,0-26.7,7.4-26.7,20.8
	c0,12.6,11.1,20.8,23,20.8c9.7,0,14.1-4.5,17.8-8.9h0.7v7.4h13.4v-35.6C928.9,192.7,916.3,183.1,900.7,183.1L900.7,183.1z
	 M899.2,234.3c-4.5,0-11.1-2.2-11.1-8.2c0-7.4,8.2-9.7,14.8-9.7c5.9,0,8.9,1.5,12.6,3C914.1,228.4,906.6,234.3,899.2,234.3z
	 M977.2,185.3l-15.6,40.1h-0.7l-16.3-40.1h-14.8l24.5,56.4L940,272.9h14.1l37.9-87.6H977.2L977.2,185.3z M852.4,244.7h14.1v-92.8
	h-14.1V244.7z"/>
</svg>
