<?xml version="1.0" encoding="utf-8"?>
<!-- Generator: Adobe Illustrator 22.0.1, SVG Export Plug-In . SVG Version: 6.00 Build 0)  -->
<svg version="1.1" id="Layer_1" xmlns="http://www.w3.org/2000/svg" xmlns:xlink="http://www.w3.org/1999/xlink" x="0px" y="0px"
	 viewBox="0 0 1136 369.8" style="enable-background:new 0 0 1136 369.8;" xml:space="preserve">
<style type="text/css">
	.st0{fill:#FFFFFF;}
</style>
<path class="st0" d="M1074.2,24.9H58.2C37,25,19.9,42.1,19.9,63.2v247.3c0,21.1,17.1,38.3,38.3,38.3h1016
	c21.2-0.1,38.5-17.1,38.8-38.3V63.2C1112.7,42,1095.4,25,1074.2,24.9z M1074.2,341.5H58.2c-17.1,0-31.1-13.8-31.1-31l0,0V63.2
	C27.1,46,41,32.1,58.2,32.1h1016c17.1,0,31,13.9,31,31l0,0v247.3C1105.2,327.6,1091.4,341.5,1074.2,341.5L1074.2,341.5z"/>
<path class="st0" d="M262.8,185.1c-0.2-26.1,21.4-38.8,22.3-39.4c-8.7-12.4-22.7-20-37.9-20.5c-15.9-1.7-31.4,9.5-39.5,9.5
	s-20.8-9.4-34.2-9.1c-17.7,0.6-33.8,10.4-42.4,25.8c-18.4,31.8-4.7,78.4,12.9,104.1c8.8,12.6,19.1,26.6,32.5,26.1
	c13.5-0.5,18.1-8.4,34-8.4s20.3,8.4,34.1,8.1c14.1-0.2,23-12.6,31.4-25.3c6.3-8.9,11.2-18.8,14.5-29.3
	C273.7,219.8,262.8,203.3,262.8,185.1z"/>
<path class="st0" d="M236.9,108.4c7.7-9.2,11.5-21.1,10.6-33.1c-10.2,0.5-23,7.1-30.4,15.7c-6.5,7.6-12.4,20.1-10.8,31.9
	C217.7,123.8,229.5,117.1,236.9,108.4z"/>
<path class="st0" d="M453.2,280h-18.4l-10.1-31.6h-35L380,280h-17.9l34.7-107.8h21.4L453.2,280z M421.8,235.1l-9.1-28.1
	c-1-2.9-2.8-9.6-5.4-20.3H407c-1.1,4.6-2.8,11.4-5.1,20.3l-8.9,28.1H421.8z"/>
<path class="st0" d="M542.4,240.2c0,13.2-3.6,23.7-10.7,31.4c-6.1,6.7-14.8,10.4-23.8,10.2c-10.2,0-17.6-3.7-22.1-11h-0.3v40.9
	h-17.3v-83.8c0-8.3-0.2-16.8-0.6-25.6h15.2l1,12.3h0.3c5.7-9.3,14.5-13.9,26.2-13.9c8.9-0.1,17.4,3.9,22.9,10.9
	C539.4,218.9,542.4,228.4,542.4,240.2z M524.8,240.9c0.3-6.6-1.5-13.1-5.1-18.7c-3.4-4.9-9-7.8-15-7.7c-4.2,0-8.4,1.5-11.6,4.2
	c-3.5,2.8-5.9,6.7-6.8,11.1c-0.5,1.7-0.7,3.5-0.8,5.3V248c-0.1,5.3,1.7,10.4,5.2,14.3c3.4,3.9,8.4,6,13.5,5.8
	c6,0.2,11.7-2.6,15.2-7.5C523.2,254.8,525.1,247.9,524.8,240.9z"/>
<path class="st0" d="M631.8,240.2c0,13.2-3.6,23.7-10.7,31.4c-6.1,6.7-14.8,10.4-23.8,10.2c-10.2,0-17.6-3.7-22.1-11h-0.3v40.9
	h-17.3v-83.8c0-8.3-0.2-16.8-0.6-25.6h15.2l1,12.3h0.3c5.7-9.3,14.5-13.9,26.2-13.9c8.9-0.1,17.4,3.9,22.9,10.9
	C628.7,218.9,631.7,228.4,631.8,240.2z M614.2,240.9c0.3-6.6-1.5-13.1-5.1-18.7c-3.4-4.9-9-7.8-15-7.7c-4.2,0-8.4,1.5-11.6,4.2
	c-3.5,2.8-5.9,6.7-6.8,11.1c-0.5,1.7-0.7,3.5-0.8,5.3V248c-0.1,5.3,1.7,10.4,5.2,14.3c3.4,3.9,8.4,6,13.5,5.8
	c6,0.2,11.7-2.6,15.2-7.5C612.6,254.8,614.5,247.9,614.2,240.9z"/>
<path class="st0" d="M731.7,249.8c0.3,8.5-3.3,16.7-9.7,22.4c-7,6.2-16.7,9.3-29.3,9.3c-11.6,0-20.9-2.2-27.9-6.7l4-14.5
	c7.5,4.6,16.2,7,25,6.9c5.4,0.3,10.8-1.2,15.2-4.4c3.6-2.8,5.6-7.2,5.4-11.8c0.1-4.1-1.5-8.1-4.5-11c-4.3-3.8-9.4-6.6-14.9-8.3
	c-18.9-7-28.3-17.3-28.3-30.9c-0.2-8.4,3.5-16.4,9.9-21.7c6.6-5.7,15.4-8.5,26.4-8.5c8.4-0.3,16.8,1.5,24.4,5.1l-4.3,14.1
	c-6.4-3.3-13.5-5-20.7-4.9c-5.1-0.3-10.2,1.3-14.2,4.5c-2.8,2.4-4.3,6-4.3,9.7c-0.1,4.1,1.7,8,4.8,10.6c4.8,3.6,10,6.4,15.7,8.3
	c7.7,2.7,14.7,7.2,20.5,13.1C729.5,236.2,731.9,242.9,731.7,249.8z"/>
<path class="st0" d="M788.8,215.3h-18.9V253c0,9.7,3.4,14.5,10.1,14.5c2.6,0.1,5.1-0.2,7.7-0.8l0.5,13.1c-4.3,1.4-8.9,2.1-13.4,1.9
	c-6,0.3-11.8-1.9-16-6.2c-3.8-4.2-5.7-11.1-5.7-20.9v-39.3h-11.3v-12.9h11.3v-14.2l16.9-5.1v19.3h19L788.8,215.3z"/>
<path class="st0" d="M874.6,240.5c0.4,10.7-3.2,21.3-10.2,29.4c-7.3,8-17.7,12.3-28.5,11.8c-10.3,0.5-20.3-3.7-27.2-11.4
	c-6.9-7.9-10.5-18.1-10.1-28.6c0-12,3.5-21.9,10.5-29.6c7-7.7,16.4-11.5,28.2-11.5c10.4-0.4,20.4,3.7,27.5,11.4
	C871.3,219.4,874.6,228.9,874.6,240.5z M856.7,241c0.2-6.5-1.4-12.8-4.6-18.4c-3-5.8-9-9.4-15.5-9.3c-6.6-0.2-12.8,3.4-15.8,9.3
	c-3.2,5.7-4.9,12.2-4.6,18.8c-0.2,6.5,1.4,12.8,4.6,18.4c4.5,8.6,15.2,12,23.8,7.4c3.2-1.7,5.8-4.3,7.4-7.4
	C855.3,254.1,857,247.7,856.7,241L856.7,241z"/>
<path class="st0" d="M930.7,217.5c-1.8-0.3-3.6-0.5-5.4-0.5c-5.6-0.3-10.9,2.3-14.1,6.9c-3,4.5-4.5,9.9-4.3,15.3V280h-17.2l0.2-53.1
	c0-9-0.2-17.1-0.7-24.5h15l0.6,14.9h0.5c1.6-4.9,4.6-9.1,8.6-12.3c3.6-2.7,8-4.2,12.5-4.2c1.4,0,2.9,0.1,4.3,0.3L930.7,217.5z"/>
<path class="st0" d="M1007.9,237.5c0,2.6-0.2,5.2-0.6,7.8h-51.8c-0.2,6.7,2.6,13.1,7.6,17.6c4.8,3.8,10.8,5.7,16.9,5.4
	c7.2,0.1,14.3-1.1,21-3.7l2.7,12.1c-8.3,3.4-17.2,5-26.1,4.8c-12,0-21.5-3.5-28.4-10.6s-10.3-16.6-10.3-28.6
	c-0.4-10.6,3.1-21,9.7-29.3c6.6-8.2,16.6-12.9,27.2-12.5c11.3,0,19.8,4.2,25.4,12.5C1005.9,220.3,1008.3,228.9,1007.9,237.5z
	 M991.5,233c0.2-4.7-0.9-9.3-3.4-13.3c-2.9-4.8-8.2-7.6-13.8-7.2c-5.5-0.1-10.6,2.5-13.7,7c-2.9,3.9-4.7,8.6-5.1,13.4L991.5,233
	L991.5,233z"/>
<path class="st0" d="M416,106c0,9.5-2.9,16.7-8.6,21.5c-5.3,4.4-12.8,6.7-22.5,6.7c-4.1,0-8.3-0.2-12.4-0.6V81.5
	c4.8-0.8,9.7-1.1,14.6-1.1c9.3,0,16.3,2,21,6C413.3,91,416,97.5,416,106z M407,106.2c1.1-9.5-5.6-18-15.1-19.2
	c-1.4-0.2-2.8-0.2-4.2,0c-2.3,0-4.6,0.2-6.8,0.6v39.6c1.9,0.2,3.8,0.3,5.7,0.2c5.6,0.4,11-1.5,15.1-5.3
	C405.3,118.4,407,113.1,407,106.2z"/>
<path class="st0" d="M463.4,114.3c0.2,5.3-1.6,10.5-5,14.5c-3.6,3.9-8.7,6-14,5.8c-5.1,0.2-10-1.8-13.4-5.6c-3.4-3.9-5.2-9-5-14.2
	c-0.2-5.3,1.6-10.5,5.1-14.5c3.6-3.8,8.6-5.9,13.9-5.7c5.1-0.2,10,1.9,13.5,5.7C461.9,104.2,463.6,109.2,463.4,114.3z M454.6,114.6
	c0.1-3.2-0.7-6.3-2.3-9.1c-1.5-2.8-4.4-4.6-7.6-4.6c-3.3-0.1-6.3,1.7-7.8,4.6c-1.6,2.8-2.4,6-2.3,9.2c-0.1,3.2,0.7,6.3,2.3,9.1
	c1.5,2.8,4.5,4.6,7.7,4.6s6.2-1.8,7.6-4.6C453.9,121,454.7,117.8,454.6,114.6z"/>
<path class="st0" d="M527,95.5l-11.9,38.2h-7.8l-4.8-16.6c-1.3-4-2.4-8.2-3.2-12.3h-0.1c-0.7,4.2-1.8,8.3-3.1,12.3l-5.3,16.6H483
	l-11.2-38.2h8.7l4.3,18.2c1,4.3,1.9,8.4,2.6,12.2h0.1c0.6-3.2,1.7-7.2,3.1-12.1l5.4-18.3h6.9l5.2,17.8c1.3,4.3,2.3,8.5,3.1,12.6h0.2
	c0.6-4.2,1.5-8.4,2.6-12.6l4.5-17.8H527L527,95.5z"/>
<path class="st0" d="M571,133.7h-8.5v-21.9c0-6.7-2.6-10.1-7.7-10.1c-2.4-0.1-4.6,1-6.1,2.8c-1.6,1.8-2.4,4.1-2.4,6.5v22.6h-8.4
	v-27.2c0-3.3-0.1-7-0.3-10.9h7.5l0.4,6h0.2c1-1.9,2.5-3.5,4.3-4.6c2.3-1.4,5-2.2,7.7-2.1c3.3-0.1,6.5,1.1,8.9,3.5
	c3.1,3.4,4.7,8,4.4,12.7L571,133.7z"/>
<path class="st0" d="M594.4,133.7h-8.5V78h8.5V133.7z"/>
<path class="st0" d="M644.4,114.3c0.2,5.3-1.6,10.5-5,14.5c-3.6,3.9-8.7,6-14,5.8c-5.1,0.2-10-1.8-13.4-5.6c-3.4-3.9-5.2-9-5-14.2
	c-0.2-5.3,1.6-10.5,5.1-14.5c3.6-3.8,8.6-5.9,13.9-5.7c5.1-0.2,10.1,1.8,13.5,5.6C642.9,104.2,644.6,109.2,644.4,114.3z
	 M635.6,114.6c0.1-3.2-0.7-6.3-2.3-9.1c-1.5-2.9-4.4-4.6-7.6-4.6c-3.3-0.1-6.3,1.7-7.8,4.6c-1.6,2.8-2.4,6-2.3,9.2
	c-0.1,3.2,0.7,6.3,2.3,9.1c1.5,2.8,4.5,4.6,7.7,4.6s6.2-1.8,7.6-4.6C634.9,121,635.7,117.8,635.6,114.6z"/>
<path class="st0" d="M685.5,133.7h-7.6l-0.7-4.4H677c-2.6,3.5-6.8,5.5-11.2,5.3c-3.3,0.1-6.4-1.1-8.7-3.5c-2-2.1-3.1-4.9-3-7.8
	c-0.2-4.4,2.1-8.5,5.8-10.7c5-2.7,10.7-4,16.5-3.6v-0.7c0-5-2.6-7.5-7.9-7.5c-3.5-0.1-7,0.9-10,2.8l-1.7-5.7c4-2.3,8.5-3.4,13.1-3.3
	c10,0,15,5.3,15,15.8v14.1C684.9,127.6,685,130.7,685.5,133.7z M676.6,120.6v-5.9c-9.4-0.2-14,2.4-14,7.7c-0.1,1.7,0.5,3.3,1.6,4.5
	c1.1,1,2.6,1.6,4.2,1.5c1.9,0,3.7-0.6,5.2-1.8C675.5,125.2,676.7,123,676.6,120.6L676.6,120.6z"/>
<path class="st0" d="M733.6,133.7h-7.5l-0.4-6.1h-0.2c-2.3,4.6-7.1,7.4-12.2,7c-4.5,0.1-8.7-1.9-11.5-5.4c-3.2-4-4.8-9-4.5-14.1
	c-0.3-5.4,1.4-10.8,4.8-15c2.9-3.4,7.3-5.4,11.8-5.3c5.1,0,8.7,1.7,10.7,5.2h0.2V78h8.5v45.4C733.3,127.2,733.4,130.6,733.6,133.7z
	 M724.8,117.6v-6.4c0-0.9-0.1-1.8-0.2-2.7c-0.4-2-1.5-3.8-3-5.1c-1.6-1.4-3.6-2.1-5.7-2.1c-3-0.1-5.8,1.4-7.4,3.8
	c-1.9,2.8-2.9,6.2-2.7,9.7c-0.1,3.3,0.8,6.5,2.6,9.2c1.7,2.4,4.5,3.8,7.4,3.8c2.6,0.1,5.1-1.1,6.7-3.1
	C724.1,122.7,725,120.2,724.8,117.6L724.8,117.6z"/>
<path class="st0" d="M806.2,114.3c0.2,5.3-1.6,10.5-5,14.5c-3.6,3.9-8.7,6-14,5.8c-5.1,0.2-10-1.8-13.4-5.6c-3.4-3.9-5.2-9-5-14.2
	c-0.2-5.3,1.6-10.5,5.1-14.5c3.6-3.8,8.6-5.9,13.9-5.7c5.1-0.2,10,1.9,13.5,5.7C804.7,104.2,806.5,109.2,806.2,114.3z M797.5,114.6
	c0.1-3.2-0.7-6.3-2.3-9.1c-1.5-2.8-4.4-4.6-7.6-4.6c-3.3-0.1-6.3,1.7-7.8,4.6c-1.6,2.8-2.4,6-2.3,9.2c-0.1,3.2,0.7,6.3,2.3,9.1
	c2.2,4.2,7.5,5.8,11.7,3.6c1.5-0.8,2.8-2.1,3.6-3.6C796.7,121,797.5,117.8,797.5,114.6z"/>
<path class="st0" d="M852,133.7h-8.5v-21.9c0-6.7-2.6-10.1-7.7-10.1c-2.4-0.1-4.6,1-6.1,2.8c-1.6,1.8-2.4,4.1-2.4,6.5v22.6h-8.5
	v-27.2c0-3.3-0.1-7-0.3-10.9h7.4l0.4,6h0.2c1-1.9,2.6-3.5,4.4-4.6c2.3-1.4,5-2.2,7.7-2.1c3.3-0.1,6.5,1.1,8.9,3.5
	c3.2,3.4,4.8,8,4.5,12.7L852,133.7L852,133.7z"/>
<path class="st0" d="M909,101.9h-9.3v18.6c0,4.8,1.7,7.1,4.8,7.1c1.3,0,2.5-0.1,3.8-0.4l0.2,6.4c-2.1,0.7-4.4,1-6.6,0.9
	c-2.9,0.2-5.8-1-7.9-3.1c-1.9-2-2.8-5.5-2.8-10.3v-19.3h-5.4v-6.3h5.6v-7l8.3-2.4v9.4h9.3L909,101.9L909,101.9z"/>
<path class="st0" d="M953.9,133.7h-8.5V112c0-6.8-2.6-10.3-7.7-10.3c-3.7-0.1-7.1,2.3-8.1,5.9c-0.3,1-0.4,2.1-0.4,3.1v22.9h-8.5
	V78.1h8.5v23h0.2c2.4-4,6.8-6.4,11.5-6.3c3.3-0.1,6.4,1.2,8.7,3.5c3.1,3.5,4.7,8.1,4.3,12.8V133.7z"/>
<path class="st0" d="M1000.2,112.8c0,1.3-0.1,2.6-0.3,3.8h-25.4c-0.1,3.3,1.2,6.5,3.7,8.6c2.4,1.9,5.3,2.8,8.3,2.7
	c3.5,0,7-0.6,10.3-1.8l1.3,5.9c-4.1,1.7-8.4,2.5-12.8,2.4c-5.2,0.3-10.2-1.6-13.9-5.2c-3.5-3.8-5.3-8.8-5.1-14
	c-0.2-5.2,1.5-10.3,4.8-14.4c3.2-4,8.2-6.3,13.3-6.1c4.9-0.3,9.6,2,12.4,6C999.2,104.4,1000.4,108.6,1000.2,112.8z M992.1,110.6
	c0.1-2.3-0.5-4.6-1.6-6.5c-1.4-2.3-4-3.7-6.8-3.5c-2.7,0-5.2,1.2-6.8,3.5c-1.4,1.9-2.2,4.2-2.4,6.6L992.1,110.6L992.1,110.6z"/>
</svg>
