<svg xmlns="http://www.w3.org/2000/svg" viewBox="0 0 116.41 58.33"><defs><style>.cls-1{fill:#ef3657;}.cls-2{fill:#4a5059;opacity:0.5;}.cls-3{fill:#132a4f;}</style></defs><title>cd-logo</title><g id="Layer_2" data-name="Layer 2"><g id="Layer_1-2" data-name="Layer 1"><path class="cls-1" d="M87,25.72a8.88,8.88,0,0,1-1.43,1.53,10.08,10.08,0,0,1-1.86,1.25,10.4,10.4,0,0,1-2.21.83,9.69,9.69,0,0,1-2.48.31,10,10,0,0,1-3.89-.73,8.87,8.87,0,0,1-3-2,9.12,9.12,0,0,1-2-3.07,11.19,11.19,0,0,1,0-7.79,9.53,9.53,0,0,1,2-3.14,9.36,9.36,0,0,1,3.05-2.09A9.71,9.71,0,0,1,79.08,10a10.13,10.13,0,0,1,4.55,1,8.57,8.57,0,0,1,3.24,2.74L84,16.48a7.27,7.27,0,0,0-2-1.89,5.16,5.16,0,0,0-2.75-.71,5.31,5.31,0,0,0-2.26.46,4.75,4.75,0,0,0-1.71,1.28A5.74,5.74,0,0,0,74.2,17.5a6.92,6.92,0,0,0-.38,2.29,6.83,6.83,0,0,0,.38,2.29,5.4,5.4,0,0,0,1.08,1.85A4.94,4.94,0,0,0,77,25.16a5.23,5.23,0,0,0,2.21.45,6.51,6.51,0,0,0,1.75-.21,5.64,5.64,0,0,0,1.32-.56,5.05,5.05,0,0,0,1-.81c.3-.31.58-.62.86-.94Z"/><path class="cls-2" d="M96.78,27.93a4.33,4.33,0,0,1-1.69,1.21,6,6,0,0,1-3.75.22,4.41,4.41,0,0,1-1.43-.65,3.59,3.59,0,0,1-1.09-1.25,4,4,0,0,1-.44-2,4.44,4.44,0,0,1,.46-2A4.31,4.31,0,0,1,90.12,22,5.69,5.69,0,0,1,92,21.05a8.64,8.64,0,0,1,2.39-.31q.7,0,1.41,0a5.78,5.78,0,0,1,.94.08v-.28a1.6,1.6,0,0,0-.21-.85,1.75,1.75,0,0,0-.56-.59,2.3,2.3,0,0,0-.8-.34,4.77,4.77,0,0,0-.95-.1A6.36,6.36,0,0,0,92,19a7,7,0,0,0-1.5.76l-1.65-2.47a9.82,9.82,0,0,1,1-.61,6.18,6.18,0,0,1,1.26-.56,9.58,9.58,0,0,1,1.64-.41,12.84,12.84,0,0,1,2.08-.15,5.62,5.62,0,0,1,4.43,1.61,6.27,6.27,0,0,1,1.42,4.32v7.65H96.89Zm0-4.56-.53-.07a8,8,0,0,0-.9,0,4.5,4.5,0,0,0-2.38.47,1.56,1.56,0,0,0-.7,1.35c0,1.08.66,1.62,2,1.62a3,3,0,0,0,.94-.15,2.61,2.61,0,0,0,.81-.43,2.24,2.24,0,0,0,.58-.71,2,2,0,0,0,.22-1Z"/><path class="cls-2" d="M103.61,16h3.87l.11,1.42a4.66,4.66,0,0,1,1.69-1.26,5.4,5.4,0,0,1,2.2-.47,4.83,4.83,0,0,1,3.6,1.34,5.42,5.42,0,0,1,1.33,4v8.12h-4V21.61a2.58,2.58,0,0,0-.55-1.74,1.87,1.87,0,0,0-1.52-.64,2.89,2.89,0,0,0-1.18.23,2.35,2.35,0,0,0-.84.64,2.64,2.64,0,0,0-.5.9,3.39,3.39,0,0,0-.17,1.11v7.06h-4Z"/><path class="cls-3" d="M70.15,32.49h7.06a13.69,13.69,0,0,1,4,.56,8.47,8.47,0,0,1,3.16,1.71,7.53,7.53,0,0,1,2.07,2.94,10.88,10.88,0,0,1,.75,4.23,10,10,0,0,1-.76,4,8.06,8.06,0,0,1-2.09,2.89,8.65,8.65,0,0,1-3.16,1.73,13,13,0,0,1-4,.58h-7ZM77,47.41a5.94,5.94,0,0,0,4.31-1.47,5.35,5.35,0,0,0,1.51-4,7.47,7.47,0,0,0-.35-2.34,4.66,4.66,0,0,0-1.06-1.79,4.73,4.73,0,0,0-1.81-1.15,7.51,7.51,0,0,0-2.6-.41H74.38v11.2Z"/><path class="cls-2" d="M89.08,44.59a7.1,7.1,0,0,1,.52-2.73A7,7,0,0,1,91,39.63a6.84,6.84,0,0,1,2.23-1.5,7.41,7.41,0,0,1,2.87-.54,7.31,7.31,0,0,1,2.85.54,6.75,6.75,0,0,1,2.21,1.5,7,7,0,0,1,1.45,2.23,7.43,7.43,0,0,1,0,5.46A6.89,6.89,0,0,1,99,51.06a7.14,7.14,0,0,1-2.85.56,7.24,7.24,0,0,1-2.87-.56A6.89,6.89,0,0,1,91,49.54a6.81,6.81,0,0,1-1.44-2.22A7.1,7.1,0,0,1,89.08,44.59Zm7.06,3.53a2.91,2.91,0,0,0,1.34-.3,3.1,3.1,0,0,0,1-.8,3.32,3.32,0,0,0,.6-1.13,4.54,4.54,0,0,0,0-2.6,3.05,3.05,0,0,0-1.6-1.91,2.9,2.9,0,0,0-1.34-.29,2.92,2.92,0,0,0-2.35,1.07,3.53,3.53,0,0,0-.61,1.13,4.13,4.13,0,0,0,0,2.6A3.53,3.53,0,0,0,93.79,47a2.78,2.78,0,0,0,1,.8A3,3,0,0,0,96.14,48.12Z"/><path class="cls-1" d="M43.38,29.17A14.23,14.23,0,0,0,29.17,15v8a6.22,6.22,0,0,1,0,12.43v8A14.22,14.22,0,0,0,43.38,29.17Z"/><path class="cls-3" d="M58.33,29.17A29.19,29.19,0,0,0,29.17,0V8a21.17,21.17,0,0,1,0,42.33v8A29.19,29.19,0,0,0,58.33,29.17Z"/><path class="cls-3" d="M29.17,35.38a6.22,6.22,0,1,1,0-12.43h0V15h0a14.22,14.22,0,1,0,0,28.43h0v-8Z"/><path class="cls-1" d="M29.17,50.33A21.17,21.17,0,1,1,29.17,8h0V0h0a29.17,29.17,0,1,0,0,58.33h0v-8Z"/></g></g></svg>