<?xml version="1.0" encoding="utf-8"?>
<!-- Generator: Adobe Illustrator 21.1.0, SVG Export Plug-In . SVG Version: 6.00 Build 0)  -->
<svg version="1.1" id="Layer_1" xmlns="http://www.w3.org/2000/svg" xmlns:xlink="http://www.w3.org/1999/xlink" x="0px" y="0px"
	 viewBox="0 0 308 143" style="enable-background:new 0 0 308 143;" xml:space="preserve">
<style type="text/css">
	.st0{fill:#ffffff;}
</style>
<title>nhs choices</title>
<g>
	<path class="st0" d="M133,102.4c-5.7,0-9.4,4.2-9.4,10.3c0,6.2,3.6,10.3,9.1,10.3c5.7,0,9.4-4.1,9.4-10.3
		C142.1,106.4,138.5,102.4,133,102.4z M132.9,120.1c-3.4,0-5.9-3-5.9-7.5c0-4.4,2.2-7.4,5.8-7.4c3.4,0,5.8,3,5.8,7.5
		C138.6,117.2,136.6,120.1,132.9,120.1z M252,95.5c-1.2,0-2.1,0.9-2.1,2.1s0.9,2.1,2.1,2.1c1.2,0,2.1-0.9,2.1-2.1
		S253.2,95.5,252,95.5z M113.9,119.8c-6,0-9.7-4.3-9.7-10.9c0-6.8,4.5-10.8,10-10.8c3.8,0,6.2,1.6,6.5,1.8l1.6-2.5
		c-0.3-0.3-3-2.5-8.3-2.5c-7.5,0-13.5,5.3-13.5,14.3c0,8.7,5.7,13.8,13,13.8c5.5,0,8.8-2.5,9.1-2.8l-1.6-2.5
		C120.7,117.9,117.8,119.8,113.9,119.8z M266.8,102.4c-5.7,0-9.4,4.2-9.4,10.3c0,6.2,3.7,10.3,9.1,10.3c5.7,0,9.4-4.1,9.4-10.3
		C275.9,106.4,272.3,102.4,266.8,102.4z M266.8,120.1c-3.4,0-5.9-3-5.9-7.5c0-4.4,2.2-7.4,5.8-7.4c3.4,0,5.8,3,5.8,7.5
		C272.5,117.2,270.4,120.1,266.8,120.1z M288.7,102.4c-3.3,0-5.8,1.8-6.1,2v-1.5h-3.1v19.6h3.4V107c0.2-0.1,2.6-1.7,5.2-1.7
		c1.2,0,2.2,0.5,2.8,1c1,1,1.1,2.6,1.1,5.1v11.2h3.4v-11.4c0-3.2-0.1-5.2-1.9-7.1C292.8,103.5,291.5,102.4,288.7,102.4z
		 M165.8,102.4c-3,0-5.2,1.3-6.8,2.3c-0.9-1.2-2.4-2.3-4.8-2.3c-3.1,0-5.8,1.8-6,2v-1.5h-3.1v19.6h3.4v-15.6c0.3-0.2,2.6-1.6,5-1.6
		c1.2,0,2,0.4,2.6,0.9c1,1.1,1,2.8,1,5.5v10.9h3.4v-11c0-1.6,0-3.7-0.3-4.6c0.5-0.3,2.8-1.7,5.2-1.7c1.2,0,2.1,0.3,2.7,1
		c1,1.1,1,3.5,1,4.8v11.5h3.4v-11.4c0-3.2-0.1-5.2-1.9-7.1C169.9,103.5,168.6,102.4,165.8,102.4z M208,122.6h3.4V103H208V122.6z
		 M209.7,95.5c-1.2,0-2.1,0.9-2.1,2.1s0.9,2.1,2.1,2.1c1.2,0,2.1-0.9,2.1-2.1S210.9,95.5,209.7,95.5z M197,102.4
		c-3,0-5.2,1.3-6.8,2.3c-0.9-1.2-2.4-2.3-4.8-2.3c-3.1,0-5.8,1.8-6,2v-1.5h-3.1v19.6h3.4v-15.6c0.3-0.2,2.6-1.6,5-1.6
		c1.2,0,2,0.4,2.6,0.9c1,1.1,1,2.8,1,5.5v10.9h3.4v-11c0-1.6,0-3.7-0.3-4.6c0.4-0.3,2.8-1.7,5.2-1.7c1.2,0,2.1,0.3,2.7,1
		c1,1.1,1,3.5,1,4.8v11.5h3.4v-11.4c0-3.2-0.1-5.2-1.9-7.1C201.1,103.5,199.7,102.4,197,102.4z M219.4,107.7c0-1.5,1.2-2.6,3.6-2.6
		c2.4,0,4.4,1.2,4.7,1.3l1.3-2.3c-0.2-0.2-2.4-1.7-6.2-1.7c-4,0-6.9,2.2-6.9,5.6c0,6.2,9.7,5.4,9.7,9.4c0,1.8-1.7,2.9-3.8,2.9
		c-2.8,0-4.8-1.3-5.2-1.5l-1.3,2.4c0.2,0.2,2.8,1.9,6.7,1.9s7.2-2.2,7.2-6C229.2,110.8,219.4,111.5,219.4,107.7z M250.3,122.6h3.4
		V103h-3.4V122.6z M236.1,107.7c0-1.5,1.2-2.6,3.6-2.6c2.4,0,4.4,1.2,4.7,1.3l1.3-2.3c-0.2-0.2-2.4-1.7-6.2-1.7
		c-4,0-6.9,2.2-6.9,5.6c0,6.2,9.7,5.4,9.7,9.4c0,1.8-1.7,2.9-3.8,2.9c-2.8,0-4.8-1.3-5.2-1.5l-1.3,2.4c0.2,0.2,2.8,1.9,6.7,1.9
		c3.8,0,7.2-2.2,7.2-6C245.9,110.8,236.1,111.5,236.1,107.7z"/>
	<path class="st0" d="M113.8,88.6c6,0,9.5-3,9.9-3.3l-2.4-3.8c-0.4,0.2-3.3,2.2-6.8,2.2c-5.1,0-8.3-3.6-8.3-9.2
		c0-5.7,3.8-9.1,8.6-9.1c3.9,0,6.1,1.8,6.4,2l2.4-3.7c-0.3-0.3-3-3.1-9.1-3.1c-8,0-14.1,5.3-14.1,14.2
		C100.4,83.4,106.2,88.6,113.8,88.6z M125.2,82c0,3.7,2.4,6.3,6.4,6.3c3.1,0,5.2-1.6,5.6-1.8v1.4h4.7V76.1c0-2.6,0-4.6-1.6-6.3
		c-1.9-1.9-4.8-2.2-6.5-2.2c-4.5,0-7.2,1.9-7.5,2.1l1.8,3.4c0.3-0.2,2.6-1.4,5.3-1.4c1.5,0,2.4,0.4,2.8,0.8c0.6,0.6,0.6,1.1,0.6,2.3
		h-0.6C133.7,74.9,125.2,75,125.2,82z M136.7,83.1c-0.2,0.1-1.6,1.2-3.8,1.2c-1.3,0-3-0.6-3-2.6c0-2.5,2.5-3.1,6-3.1
		c0,0,0.5,0,0.8,0V83.1z M149.8,75c0.6-0.9,2.2-2.8,5.5-2.8c0.3,0,1,0.1,1.2,0.1l1.2-4.1c-0.1,0-0.8-0.5-2.2-0.5
		c-3.9,0-6.4,2.8-6.5,3v-2.5h-4.6v19.7h5.4L149.8,75L149.8,75z M166.8,67.7c-5.6,0-9.5,4.5-9.5,10.5c0,5.7,3.4,10.3,9.8,10.3
		c4.4,0,7.4-2,7.5-2.2l-1.8-3.4c-0.8,0.4-2.8,1.4-5.3,1.4c-3.9,0-5.1-3-5-4.4h13c0-0.3,0.1-0.8,0.1-1.7
		C175.6,71.7,172.5,67.7,166.8,67.7z M162.5,76c0.4-2.5,1.9-4.3,4.4-4.3c3.3,0,3.7,3.2,3.7,4.3H162.5z M215.3,88.5
		c2.8,0,5.2-1.8,5.6-2V88h4.6V68.2h-5.4v14.4c-0.3,0.2-1.9,1.2-3.7,1.2c-1.3,0-1.9-0.5-2.1-0.7c-0.7-0.7-0.8-2-0.8-4.6V68.2h-5.4
		v10.6c0,2.6-0.1,5.5,2.1,7.7C211.5,87.9,213.3,88.5,215.3,88.5z M239.6,86.5v1.4h4.7V76.1c0-2.6,0-4.6-1.6-6.3
		c-1.9-1.9-4.8-2.2-6.5-2.2c-4.5,0-7.2,1.9-7.5,2.1l1.8,3.4c0.3-0.2,2.6-1.4,5.2-1.4c1.5,0,2.4,0.4,2.8,0.8c0.6,0.6,0.6,1.1,0.6,2.3
		h-0.6c-2.4,0-11,0.1-11,7.1c0,3.7,2.4,6.3,6.4,6.3C237.2,88.4,239.2,86.8,239.6,86.5z M232.4,81.7c0-2.5,2.5-3.1,6-3.1
		c0,0,0.5,0,0.8,0v4.5c-0.2,0.1-1.6,1.2-3.8,1.2C234.1,84.3,232.4,83.7,232.4,81.7z M252.3,58.9h-5.4v29h5.4V58.9z M257.9,65.8
		c1.7,0,3.1-1.4,3.1-3.1c0-1.7-1.4-3.1-3.1-3.1s-3.1,1.4-3.1,3.1C254.8,64.4,256.1,65.8,257.9,65.8z M260.6,68.2h-5.4v19.7h5.4V68.2
		z M274.6,84c-2.4,0-2.5-1.8-2.5-3.4v-7.9h5.6v-4.5h-5.6v-5.5h-5.4v5.5h-3.4v4.5h3.4v7.7c0,2.8,0,4.6,1.7,6.3
		c1.3,1.3,3.3,1.8,5.1,1.8c2.9,0,4.8-1.2,5-1.3l-1.4-3.7C276.7,83.6,275.8,84,274.6,84z M283.1,92.9c-1.6,0-2.8-0.6-3-0.7l-1.6,3.8
		c0.2,0.1,2,1.2,4.9,1.2c3.2,0,4.9-1.2,5.8-2c1.4-1.4,2.3-3.2,3.8-7.1l7.8-19.9h-5.3L290.6,82l-5.3-13.8h-5.7l8.3,19.7
		c-0.3,0.9-1,3-2,3.9C285.2,92.5,284.3,92.9,283.1,92.9z M205.7,74.4c0-8-5.1-13.8-13.1-13.8c-7.8,0-13.1,5.6-13.1,13.8
		c0,8.4,5.2,14.1,12.8,14.3l0,0h0.3c3.7,0.1,6.3,1.3,7.9,3.4c0.6-0.4,4.6-3.8,4.6-3.8s-1.4-1.7-4.6-2.1
		C203.8,83.6,205.7,79.6,205.7,74.4z M192.8,83.9c-4.2,0-7.4-3.5-7.4-9.1s2.8-9.5,7.1-9.5c4.5,0,7.5,3.8,7.5,9.1
		C200,78.7,198.3,83.9,192.8,83.9z"/>
	<path class="st0" d="M72.7,125.6c10.6-7.5,17.5-19.9,17.5-33.9c0-22.9-18.6-41.5-41.5-41.5S7.2,68.8,7.2,91.7s18.6,41.5,41.5,41.5
		c0.2,0,0.8,0,1.2,0c11,0.2,18.6,3.8,23.5,9.8c1.6-1.1,13.4-11.2,13.4-11.2S82.6,126.7,72.7,125.6z M47.9,122.6
		C58.4,120.5,67,113,70.7,103h-0.1c-4.1,7.9-12.4,13.3-21.9,13.3c-13.6,0-24.7-11-24.7-24.7C24,78,35,66.9,48.7,66.9
		c9.5,0,17.8,5.4,21.9,13.3h0.1C67,70.5,58.4,63,47.9,60.9c0.3,0,0.7,0,1,0c16.9,0,30.6,13.8,30.6,30.9s-13.7,30.9-30.6,30.9
		C48.5,122.6,48.2,122.6,47.9,122.6z"/>
	<g>
		<path class="st0" d="M7.5,27.1V5.8h2.6v21.3C10.1,27.1,7.5,27.1,7.5,27.1z"/>
		<path class="st0" d="M24.3,27.1v-9.2c0-2.2,0.1-4-2.5-4c-1.3,0-2.8,0.3-4.4,0.9v12.3H15v-15h2.3v1.2c2.2-1,3.9-1.6,5.2-1.6
			c1.5,0,2.7,0.5,3.4,1.5c0.6,0.9,0.8,1.6,0.8,3.9v10C26.7,27.1,24.3,27.1,24.3,27.1z"/>
		<path class="st0" d="M34.3,27.4c-1.6,0-2.7-0.2-4.5-0.7l0.4-1.7c1.5,0.3,2.5,0.4,3.5,0.4c2.2,0,3.4-0.9,3.4-2.5
			c0-1.3-0.5-1.8-2.5-2.5c-2.6-0.8-4.8-1.7-4.8-4.4s1.9-4.4,4.9-4.4c1.1,0,2.5,0.3,4,0.8L38.3,14c-1.4-0.3-2.6-0.5-3.4-0.5
			c-1.7,0-2.7,0.8-2.7,2.2c0,3.4,7.4,1.5,7.4,6.8C39.6,25.6,37.6,27.4,34.3,27.4z"/>
		<path class="st0" d="M49.9,27.4c-1.6,0-3.3-0.9-4.7-1.7v7.7h-2.4V12.1h2.3v1.3c1.9-1.1,3.7-1.7,5.1-1.7c3.3,0,5.1,2.9,5.1,7.8
			C55.4,24.2,53.2,27.4,49.9,27.4z M49.5,13.8c-1,0-2,0.3-4.2,1.1v9.3c2.2,0.8,3,1.1,4,1.1c2.3,0,3.5-1.9,3.5-5.6
			C52.8,15.7,51.7,13.8,49.5,13.8z"/>
		<path class="st0" d="M60.6,19.8v0.5c0,3.3,1.4,4.9,3.9,4.9c1.4,0,2.7-0.3,5.2-1.1l0.4,1.5c-3.1,1.4-4.4,1.8-6.2,1.8
			c-3.6,0-5.9-2.8-5.9-7.3c0-5.2,2.4-8.5,6.4-8.5c3.8,0,5.8,2.4,5.8,7.3v0.8h-9.6V19.8z M64.7,13.6c-2.3,0-3.7,1.6-4,4.6l7.1-0.3
			C67.8,14.9,66.8,13.6,64.7,13.6z"/>
		<path class="st0" d="M78.7,27.4c-3.7,0-6-2.6-6-7.7c0-4.9,2.6-8.1,6.3-8.1c1.2,0,2.8,0.3,4.7,1l-0.4,1.6c-1.8-0.4-2.5-0.5-3.8-0.5
			c-2.9,0-4.3,1.9-4.3,5.8c0,3.7,1.4,5.6,4.1,5.6c1.1,0,2.7-0.3,4.2-0.8l0.5,1.5C81.9,26.9,80.1,27.4,78.7,27.4z"/>
		<path class="st0" d="M90.4,27.4c-1.2,0-2.2-0.5-2.6-1.5c-0.3-0.6-0.4-1.2-0.4-3v-9.2h-2.6v-1.3l2.6-0.3v-4h2.4v4H94v1.7h-4.2v8.1
			c0,2.6,0,2.6,0.2,3s0.6,0.5,1.2,0.5c0.8,0,1.6-0.2,2.9-0.5l0.4,1.5C92.7,27.1,91.6,27.4,90.4,27.4z"/>
		<path class="st0" d="M98.6,19.8v0.5c0,3.3,1.4,4.9,3.9,4.9c1.4,0,2.7-0.3,5.2-1.1l0.4,1.5c-3.1,1.4-4.4,1.8-6.2,1.8
			c-3.6,0-5.9-2.8-5.9-7.3c0-5.2,2.4-8.5,6.4-8.5c3.8,0,5.8,2.4,5.8,7.3v0.8h-9.6V19.8z M102.7,13.6c-2.3,0-3.7,1.6-4,4.6l7.1-0.3
			C105.8,14.9,104.7,13.6,102.7,13.6z"/>
		<path class="st0" d="M120.9,27.1v-1.3c-1.9,1.1-3.7,1.7-5.1,1.7c-3.3,0-5.1-2.9-5.1-7.8c0-4.7,2.2-7.9,5.5-7.9
			c1.6,0,3.2,0.9,4.7,1.7V4.4h2.4V27h-2.4V27.1z M120.8,14.9c-2.3-0.8-3-1-4-1c-2.3,0-3.5,1.9-3.5,5.5c0,4.1,1.1,5.9,3.4,5.9
			c1,0,2-0.2,4.2-1.1L120.8,14.9L120.8,14.9z"/>
		<path class="st0" d="M143.3,27.1v-1.3c-1.9,1.1-3.3,1.7-4.6,1.7c-1.9,0-3.9-1.5-3.9-4.7c0-2.4,1.1-3.9,2.8-4.3
			c1.1-0.3,2.6-0.4,5.6-0.4v-0.6c0-2.5,0.1-3.6-2.8-3.6c-1.1,0-2.6,0.2-4.5,0.5l-0.3-1.6c2.4-0.7,4.1-1,5.7-1c1.6,0,2.7,0.4,3.3,1.2
			s0.8,1.7,0.8,4.5v9.7h-2.1V27.1z M143.2,19.6c-4.8,0.3-6,1.1-6,3.2c0,1.7,0.8,2.6,2,2.6c1.4,0,3.9-1.1,3.9-1.1v-4.7H143.2z"/>
		<path class="st0" d="M159.2,27.1v-9.2c0-2.2,0.1-4-2.5-4c-1.3,0-2.8,0.3-4.4,0.9v12.3H150v-15h2.3v1.2c2.2-1,3.9-1.6,5.2-1.6
			c1.5,0,2.7,0.5,3.4,1.5c0.6,0.9,0.8,1.6,0.8,3.9v10C161.7,27.1,159.2,27.1,159.2,27.1z"/>
		<path class="st0" d="M175.2,27.1v-1.3c-1.9,1.1-3.7,1.7-5.1,1.7c-3.3,0-5.1-2.9-5.1-7.8c0-4.7,2.2-7.9,5.5-7.9
			c1.6,0,3.2,0.9,4.7,1.7V4.4h2.4V27h-2.4V27.1z M175.2,14.9c-2.3-0.8-3-1-4-1c-2.3,0-3.5,1.9-3.5,5.5c0,4.1,1.1,5.9,3.4,5.9
			c1,0,2-0.2,4.2-1.1L175.2,14.9L175.2,14.9z"/>
		<path class="st0" d="M196.3,14.1c-1.3,0-2.5,0.2-3.9,0.9v12.1H190v-15h2.3v1.3c1.5-1.1,2.6-1.5,4-1.5c0.3,0,0.4,0,0.8,0.1v2.2
			C196.7,14.1,196.5,14.1,196.3,14.1z"/>
		<path class="st0" d="M206.7,27.1v-1.3c-1.9,1.1-3.3,1.7-4.6,1.7c-1.9,0-3.9-1.5-3.9-4.7c0-2.4,1.1-3.9,2.8-4.3
			c1.1-0.3,2.6-0.4,5.6-0.4v-0.6c0-2.5,0.1-3.6-2.8-3.6c-1.1,0-2.6,0.2-4.5,0.5l-0.3-1.6c2.4-0.7,4.1-1,5.7-1c1.6,0,2.7,0.4,3.3,1.2
			s0.8,1.7,0.8,4.5v9.7h-2.1V27.1z M206.7,19.6c-4.8,0.3-6,1.1-6,3.2c0,1.7,0.8,2.6,2,2.6c1.4,0,3.9-1.1,3.9-1.1v-4.7H206.7z"/>
		<path class="st0" d="M216.9,27.4c-1.2,0-2.2-0.5-2.6-1.5c-0.3-0.6-0.4-1.2-0.4-3v-9.2h-2.6v-1.3l2.6-0.3v-4h2.4v4h4.2v1.7h-4.2
			v8.1c0,2.6,0,2.6,0.2,3s0.6,0.5,1.2,0.5c0.8,0,1.6-0.2,2.9-0.5l0.4,1.5C219.2,27.1,218.1,27.4,216.9,27.4z"/>
		<path class="st0" d="M225,19.8v0.5c0,3.3,1.4,4.9,3.9,4.9c1.4,0,2.7-0.3,5.2-1.1l0.4,1.5c-3.1,1.4-4.4,1.8-6.2,1.8
			c-3.6,0-5.9-2.8-5.9-7.3c0-5.2,2.4-8.5,6.4-8.5c3.8,0,5.8,2.4,5.8,7.3v0.8H225V19.8z M229.1,13.6c-2.3,0-3.7,1.6-4,4.6l7.1-0.3
			C232.2,14.9,231.2,13.6,229.1,13.6z"/>
		<path class="st0" d="M247.4,27.1v-1.3c-1.9,1.1-3.7,1.7-5.1,1.7c-3.3,0-5.1-2.9-5.1-7.8c0-4.7,2.2-7.9,5.5-7.9
			c1.6,0,3.2,0.9,4.7,1.7V4.4h2.4V27h-2.4V27.1z M247.3,14.9c-2.3-0.8-3-1-4.1-1c-2.3,0-3.5,1.9-3.5,5.5c0,4.1,1.1,5.9,3.4,5.9
			c1,0,2-0.2,4.2-1.1L247.3,14.9L247.3,14.9z"/>
		<path class="st0" d="M269.2,27.4c-1.7,0-3.3-0.9-4.7-1.7V27h-2.3V4.4h2.4v8.9c2-1.1,3.6-1.7,5-1.7c3.3,0,5.1,2.9,5.1,7.8
			C274.7,24.2,272.5,27.4,269.2,27.4z M268.8,13.8c-1,0-1.9,0.2-4.2,1.1v9.3c2.3,0.9,3,1.1,4,1.1c2.3,0,3.5-1.9,3.5-5.6
			C272.2,15.7,271,13.8,268.8,13.8z"/>
		<path class="st0" d="M283.4,29.5c-1.3,3.4-2.1,4.2-4.7,4.2c-0.5,0-1,0-1.7-0.1l0.2-1.6c0.4,0,0.7,0.1,1,0.1c2.1,0,2.2-0.1,3.6-3.6
			l0.6-1.6l-6-14.8h2.6l4.6,11.8l4.2-11.8h2.3L283.4,29.5z"/>
	</g>
</g>
</svg>
