<?xml version="1.0" encoding="utf-8"?>
<!-- Generator: Adobe Illustrator 21.1.0, SVG Export Plug-In . SVG Version: 6.00 Build 0)  -->
<svg version="1.1" id="Layer_1" xmlns="http://www.w3.org/2000/svg" xmlns:xlink="http://www.w3.org/1999/xlink" x="0px" y="0px"
	 viewBox="0 0 271.5 90.5" style="enable-background:new 0 0 271.5 90.5;" xml:space="preserve">
<style type="text/css">
	.st0{fill:#ffffff;}
</style>
<title>NHS Logo - small</title>
<desc>Created with Sketch.</desc>
<g id="Assets">
	<g id="NHS-Logo---small">
		<g id="Providing-NHS-Services-RGB-BLUE" transform="translate(4.000000, -136.500000)">
			<path id="Fill-1" class="st0" d="M27.5,195.9h1c1.5,0,2.7,0.6,2.7,2.2c0,1.6-1.3,2.1-2.7,2.1h-0.9L27.5,195.9L27.5,195.9z
				 M24.7,207.8h2.8v-5.4h1.2c3,0,5.4-1.2,5.4-4.5c0-3.4-2.8-4.2-5.9-4.2h-3.6L24.7,207.8L24.7,207.8z M36,207.8h2.7V204
				c0-1.5,0-4.2,2.2-4.2c0.5,0,0.9,0.1,1.2,0.3v-2.8c-0.3-0.1-0.6-0.1-0.9-0.1c-1.6,0-2.8,1.6-2.8,2.6l0,0v-2.3H36
				C36,197.4,36,207.8,36,207.8z M42.8,202.6c0,3,2,5.4,5.4,5.4s5.4-2.4,5.4-5.4c0-3.5-2.3-5.5-5.4-5.5
				C45.2,197.1,42.8,199.2,42.8,202.6z M45.7,202.3c0-1.6,0.9-3.1,2.6-3.1c1.8,0,2.6,1.5,2.6,3.1c0,1.7-0.5,3.6-2.6,3.6
				C46.2,205.9,45.7,204,45.7,202.3z M58.1,207.8h3l3.9-10.4h-2.7l-2.5,7.6l0,0l-2.6-7.6h-2.9L58.1,207.8z M66.7,207.8h2.7v-10.4
				h-2.7V207.8z M66.7,195.5h2.7v-2.6h-2.7V195.5z M74.1,202.5c0-1.4,0.5-3.3,2.2-3.3s2.4,1.9,2.4,3.3c0,1.5-0.6,3.4-2.4,3.4
				C74.6,205.9,74.1,204,74.1,202.5z M78.8,207.8h2.6v-15.2h-2.7v6l0,0c-0.8-0.9-1.7-1.5-3.1-1.5c-3.2,0-4.4,2.6-4.4,5.4
				c0,2.8,1.2,5.5,4.4,5.5c1.3,0,2.4-0.4,3.2-1.4l0,0V207.8z M83.9,207.8h2.7v-10.4h-2.7V207.8z M83.9,195.5h2.7v-2.6h-2.7V195.5z
				 M89.5,207.8h2.7v-5.1c0-1.3,0.4-3.5,2.4-3.5c1.7,0,1.7,1.7,1.7,3v5.5H99v-6.6c0-2.3-1-4.1-3.5-4.1c-1.4,0-2.6,0.4-3.5,1.6l0,0
				v-1.4h-2.6L89.5,207.8L89.5,207.8z M106.3,205.7c-1.6,0-2.3-1.7-2.3-3.2c0-1.6,0.6-3.3,2.4-3.3c1.6,0,2.2,1.5,2.2,3.2
				C108.7,204.2,108,205.7,106.3,205.7z M108.8,197.4v1.4l0,0c-0.8-1.2-1.8-1.6-3.2-1.6c-3.1,0-4.4,2.9-4.4,5.4
				c0,2.8,1.2,5.3,4.2,5.3c1.6,0,2.8-0.8,3.2-1.6l0,0c0,1.8-0.2,4.1-3.1,4.1c-0.9,0-2.2-0.4-3-0.9l-0.3,2.3c1.3,0.5,2.5,0.7,3.6,0.7
				c4.4,0,5.5-2.7,5.5-5.5v-9.4L108.8,197.4L108.8,197.4z M119.5,207.8h2.7v-10.5l0,0l5.4,10.5h3.5v-14.2h-2.7v10.5l0,0l-5.4-10.5
				h-3.5L119.5,207.8L119.5,207.8z M133.8,207.8h2.8v-6.2h5.7v6.2h2.8v-14.2h-2.8v5.7h-5.7v-5.7h-2.8V207.8z M155.9,193.9
				c-1-0.3-2.2-0.5-3.4-0.5c-2.5,0-4.9,1.1-4.9,4.3c0,4.7,6.2,3.5,6.2,6.2c0,1.3-1.5,1.8-2.5,1.8c-1.1,0-2.2-0.3-3.2-0.9l-0.3,2.6
				c1.4,0.3,2.1,0.5,3.6,0.5c2.8,0,5.3-1.2,5.3-4.2c0-4.7-6.2-3.7-6.2-6.1c0-1.6,1.3-2,2.2-2s2,0.3,2.8,0.6L155.9,193.9z
				 M170.7,197.5c-0.9-0.2-1.6-0.3-2.9-0.3c-2.2,0-4.1,0.9-4.1,3.2c0,3.8,4.7,2.3,4.7,4.4c0,1-1.1,1.3-1.8,1.3
				c-0.9,0-1.8-0.3-2.7-0.7l-0.2,2.2c0.9,0.3,2.1,0.4,3.1,0.4c2.2,0,4.4-0.9,4.4-3.4c0-3.8-4.7-2.7-4.7-4.4c0-0.9,0.9-1.1,1.6-1.1
				c0.9,0,1.6,0.2,2.4,0.4L170.7,197.5z M175.2,201.6c0.1-1.4,0.9-2.4,2.4-2.4c1.6,0,2.2,1.1,2.2,2.4H175.2z M181.7,205
				c-1,0.6-2.2,1-3.5,1c-1.6,0-2.8-0.9-2.9-2.6h7.2c0-3.6-1.1-6.3-4.9-6.3c-3.2,0-4.8,2.5-4.8,5.5c0,3.5,2,5.4,5.4,5.4
				c1.5,0,2.6-0.3,3.5-0.9V205L181.7,205z M184.2,207.8h2.7V204c0-1.5,0-4.2,2.2-4.2c0.5,0,0.9,0.1,1.2,0.3v-2.8
				c-0.3-0.1-0.6-0.1-0.9-0.1c-1.6,0-2.8,1.6-2.8,2.6l0,0v-2.3h-2.4V207.8z M195.5,207.8h3l3.9-10.4h-2.7l-2.5,7.6l0,0l-2.6-7.6
				h-2.9L195.5,207.8z M204.1,207.8h2.7v-10.4h-2.7V207.8z M204.1,195.5h2.7v-2.6h-2.7V195.5z M216.3,197.4
				c-0.8-0.3-1.6-0.3-2.6-0.3c-3.3,0-5,2.4-5,5.4c0,3.2,1.7,5.5,5.2,5.5c1.1,0,1.9-0.1,2.7-0.3l-0.1-2.2c-0.4,0.2-1.3,0.5-2.1,0.5
				c-1.9,0-2.8-1.5-2.8-3.4c0-2,1-3.3,2.8-3.3c0.9,0,1.4,0.2,1.8,0.3L216.3,197.4z M220.2,201.6c0.1-1.4,0.9-2.4,2.4-2.4
				c1.6,0,2.2,1.1,2.2,2.4H220.2z M226.6,205c-1,0.6-2.2,1-3.5,1c-1.6,0-2.8-0.9-2.9-2.6h7.2c0-3.6-1.1-6.3-4.9-6.3
				c-3.2,0-4.8,2.5-4.8,5.5c0,3.5,2,5.4,5.4,5.4c1.5,0,2.6-0.3,3.5-0.9V205L226.6,205z M235.9,197.5c-0.9-0.2-1.6-0.3-2.9-0.3
				c-2.2,0-4.1,0.9-4.1,3.2c0,3.8,4.7,2.3,4.7,4.4c0,1-1.1,1.3-1.8,1.3c-0.9,0-1.8-0.3-2.7-0.7l-0.2,2.2c0.9,0.3,2.1,0.4,3.1,0.4
				c2.2,0,4.4-0.9,4.4-3.4c0-3.8-4.7-2.7-4.7-4.4c0-0.9,0.9-1.1,1.6-1.1c0.9,0,1.6,0.2,2.4,0.4L235.9,197.5L235.9,197.5z"/>
			<path id="Fill-2" class="st0" d="M165.9,185.4h71.2v-28.7h-71.2V185.4z M194.5,159.5l-4.9,23.1h-7.7l-4.8-16H177l-3.2,16h-5.9
				l4.9-23.1h7.8l4.7,16h0.1l3.3-16H194.5z M216.5,159.5l-4.8,23.1h-6.1l2.1-9.8h-7.3l-2.1,9.8H192l4.8-23.1h6.2l-1.8,8.8h7.3
				l1.8-8.8H216.5z M234.4,160.2l-1.5,4.6c-1.2-0.5-2.8-1-5.1-1c-2.4,0-4.5,0.3-4.5,2.2c0,3.3,9,2.1,9,9.1c0,6.4-6,8-11.3,8
				c-2.4,0-5.2-0.6-7.2-1.2l1.5-4.7c1.2,0.8,3.7,1.3,5.7,1.3c1.9,0,4.9-0.3,4.9-2.8c0-3.7-9-2.3-9-8.8c0-6,5.3-7.8,10.4-7.8
				C230.2,159.1,232.9,159.5,234.4,160.2L234.4,160.2z"/>
		</g>
	</g>
</g>
</svg>
