<?xml version="1.0" encoding="utf-8"?>
<!-- Generator: Adobe Illustrator 21.1.0, SVG Export Plug-In . SVG Version: 6.00 Build 0)  -->
<svg version="1.1" id="Layer_1" xmlns="http://www.w3.org/2000/svg" xmlns:xlink="http://www.w3.org/1999/xlink" x="0px" y="0px"
	 viewBox="0 0 879 280" style="enable-background:new 0 0 879 280;" xml:space="preserve">
<style type="text/css">
	.st0{fill:#FFFFFF;}
	.st1{fill:#6AB545;}
	.st2{fill:#2397D4;}
</style>
<g>
	<path class="st0" d="M446.9,115.3c-14.6,0-26.4-11.8-26.4-26.4s11.8-26.4,26.4-26.4s26.4,11.8,26.4,26.4S461.5,115.3,446.9,115.3
		 M446.9,37.2c-28.6,0-51.7,23.2-51.7,51.7s23.2,51.7,51.7,51.7c28.6,0,51.7-23.2,51.7-51.7C498.5,60.3,475.3,37.2,446.9,37.2"/>
	<path class="st0" d="M263.7,135c-4.3,0-7.9-3.7-7.9-7.9v-105c0-4.3,3.5-7.9,7.8-7.9h24.9c4.1,0,8.9,4,11.6,7.9l50.9,78.3V21.8
		c0-4.3,3.7-7.8,7.9-7.8h14.5c4.5,0,7.9,3.5,7.9,7.9v105c0,4.3-3.5,7.9-7.9,7.9h-28c-4.5,0-9.5-3.7-12.3-7.9l-46.6-72.3v72.3
		c0,4.3-3.7,7.9-7.9,7.9h-14.8V135z"/>
	<path class="st0" d="M585.4,42.6c4.8,0,8.2,2.9,9.7,7.5l13.6,45.5l13.8-45.5c1.6-4.8,6.5-7.5,11.4-7.5h15.7c4,0,4.8,3.1,3.5,7.5
		l-25.5,77.6c-1.6,4.7-6.2,7.5-10.7,7.5h-11.9c-4.3,0-9.1-2.8-10.7-7.5l-16.3-50.3l-16.3,50.3c-1.6,4.7-6.3,7.5-10.7,7.5h-11.9
		c-4.5,0-9.1-2.8-10.7-7.5L503,50.1c-1.3-4.3-0.4-7.5,3.4-7.5h15.7c5,0,9.8,2.6,11.4,7.5l13.8,45.5l13.6-45.5
		c1.3-4.5,4.8-7.5,9.7-7.5L585.4,42.6L585.4,42.6z"/>
</g>
<g>
	<g>
		<g>
			<g>
				<g>
					<polygon class="st1" points="128.8,169.4 128.8,133.4 128.8,133.4 128.8,169.4 					"/>
					<path class="st0" d="M128.8,133.4l-0.9-0.9v39.6c0.6-0.8,0.9-1.7,0.9-2.7V133.4z"/>
					<path class="st0" d="M126.5,131l-0.9-0.9v43.6c0.3-0.1,0.6-0.2,0.9-0.4V131z"/>
					<polygon class="st0" points="124.1,128.6 123.2,127.7 123.2,174 124.1,174 					"/>
					<polygon class="st0" points="121.8,126.3 120.9,125.4 120.9,174 121.8,174 					"/>
					<polygon class="st0" points="119.4,123.9 118.5,123 118.5,174 119.4,174 					"/>
					<polygon class="st0" points="117,121.6 116.1,120.7 116.1,174 117,174 					"/>
					<path class="st0" d="M98.7,133.4v36c0,2.5,2.1,4.6,4.6,4.6l11.4,0v-54.8l-0.9-0.9L98.7,133.4z"/>
				</g>
			</g>
		</g>
	</g>
	<g>
		<g>
			<g>
				<g>
					<polygon class="st1" points="98.7,67.2 98.7,103.2 98.7,103.2 98.7,67.2 					"/>
					<path class="st0" d="M98.7,103.2l0.9,0.9V64.5c-0.6,0.8-0.9,1.7-0.9,2.7V103.2z"/>
					<path class="st0" d="M101.1,105.6l0.9,0.9V62.8c-0.3,0.1-0.6,0.2-0.9,0.4V105.6z"/>
					<polygon class="st0" points="103.4,108 104.3,108.8 104.3,62.6 103.4,62.6 					"/>
					<polygon class="st0" points="105.8,110.3 106.7,111.2 106.7,62.6 105.8,62.6 					"/>
					<polygon class="st0" points="108.1,112.7 109,113.6 109,62.6 108.1,62.6 					"/>
					<polygon class="st0" points="110.5,115 111.4,115.9 111.4,62.6 110.5,62.6 					"/>
					<path class="st0" d="M128.8,103.2v-36c0-2.5-2.1-4.6-4.6-4.6l-11.4,0v54.8l0.9,0.9L128.8,103.2z"/>
				</g>
			</g>
		</g>
	</g>
	<g>
		<g>
			<g>
				<g>
					<polygon class="st2" points="164.8,103.2 128.8,103.2 128.8,103.2 164.8,103.2 					"/>
					<path class="st0" d="M128.8,103.2l-0.9,0.9h39.6c-0.8-0.6-1.7-0.9-2.7-0.9H128.8z"/>
					<path class="st0" d="M126.5,105.6l-0.9,0.9h43.6c-0.1-0.3-0.2-0.6-0.4-0.9H126.5z"/>
					<polygon class="st0" points="124.1,108 123.2,108.8 169.4,108.8 169.4,108 					"/>
					<polygon class="st0" points="121.8,110.3 120.9,111.2 169.4,111.2 169.4,110.3 					"/>
					<polygon class="st0" points="119.4,112.7 118.5,113.6 169.4,113.6 169.4,112.7 					"/>
					<polygon class="st0" points="117,115 116.1,115.9 169.4,115.9 169.4,115 					"/>
					<path class="st0" d="M128.8,133.4h36c2.5,0,4.6-2.1,4.6-4.6l0-11.4h-54.8l-0.9,0.9L128.8,133.4z"/>
				</g>
			</g>
		</g>
	</g>
	<g>
		<g>
			<g>
				<g>
					<polygon class="st2" points="62.7,133.4 98.7,133.4 98.7,133.4 62.7,133.4 					"/>
					<path class="st0" d="M98.7,133.4l0.9-0.9H60c0.8,0.6,1.7,0.9,2.7,0.9H98.7z"/>
					<path class="st0" d="M101.1,131l0.9-0.9H58.3c0.1,0.3,0.2,0.6,0.4,0.9H101.1z"/>
					<polygon class="st0" points="103.4,128.6 104.3,127.7 58.1,127.7 58.1,128.6 					"/>
					<polygon class="st0" points="105.8,126.3 106.7,125.4 58.1,125.4 58.1,126.3 					"/>
					<polygon class="st0" points="108.1,123.9 109,123 58.1,123 58.1,123.9 					"/>
					<polygon class="st0" points="110.5,121.6 111.4,120.7 58.1,120.7 58.1,121.6 					"/>
					<path class="st0" d="M98.7,103.2h-36c-2.5,0-4.6,2.1-4.6,4.6l0,11.4h54.8l0.9-0.9L98.7,103.2z"/>
				</g>
			</g>
		</g>
	</g>
	<g>
		<path class="st0" d="M125.5,268.7c4.6,0,8.4-3.7,8.4-8.4l0-20.2h14.4c27.2,0,51.1-25.8,51.1-55.2v-3.3l0-0.1c0-3.9-3.2-7-7-7
			l-13.7,0c-3.7,0-6.7,3-6.7,6.7v3.7c0,14.4-11.1,26.9-23.7,26.9H78c-12.6,0-23.7-12.6-23.7-26.9v-3.7c0-3.7-3-6.7-6.7-6.7l-13.7,0
			c-3.9,0-7,3.1-7,7l0,0.1v3.3c0,29.4,23.9,55.2,51.1,55.2h14.4l0,20.2c0,4.6,3.7,8.4,8.4,8.4H125.5z"/>
		<path class="st0" d="M46.5,169.7c0.7,0,1.3-0.7,1.1-1.4L31.1,93.3c-4.5-20.7,4.4-42.2,21.7-52.3c3.6-2.1,7.4-3.7,11.4-4.8
			c0.4,0.6,0.9,1.1,1.7,1.3c1.5,0.4,3.9,1,6.9,0.9c6.8,0,12.3-5.6,12.3-12.4v0c0-7.8-7.2-13.7-14.8-12c-4.2,0.9-7.2,2.4-8.9,3.6
			c-0.7,0.5-1.3,1.3-1.4,2.1c-5.5,1.5-10.8,3.7-15.7,6.6c-24,14.1-36,42.5-29.8,70.8l15.4,70.2c0.3,1.6,1.7,2.7,3.3,2.7H46.5z"/>
		<path class="st0" d="M183.3,26.2c-4.9-2.9-10.2-5.1-15.7-6.6c-0.1-0.8-0.7-1.6-1.4-2.1c-1.7-1.1-4.7-2.7-8.9-3.6
			c-7.6-1.6-14.8,4.2-14.8,12v0c0,6.8,5.5,12.4,12.3,12.4c3,0,5.4-0.5,6.9-0.9c0.7-0.2,1.2-0.7,1.7-1.3c4,1.1,7.8,2.7,11.4,4.8
			c17.3,10.1,26.3,31.7,21.7,52.3l-16.5,75.1c-0.2,0.7,0.4,1.4,1.1,1.4h13.4c1.6,0,3-1.1,3.3-2.7l15.4-70.2
			C219.3,68.7,207.3,40.2,183.3,26.2z"/>
	</g>
</g>
<g>
	<path class="st0" d="M321.4,158.5c29.5,0,46.8,13.3,46.8,43.1s-17.3,43.1-46.8,43.1h-37.1v17.4c0,4-3.2,7.3-7.3,7.3h-14.6
		c-4,0-7.3-3.3-7.3-7.3v-96.4c0-4.1,3.2-7.3,7.1-7.3H321.4z M284.3,180.3v42.5h28.2c15.2,0,26.5-3.2,26.5-21.2
		c0-18.1-11.3-21.2-26.5-21.2H284.3z"/>
	<path class="st0" d="M407.4,205.9c-2.1,2.5-4.9,4.1-8.9,4.1H387c-2.7,0-4.8-2.1-4.8-4.8c0-16.5,16.5-22.2,42.2-22.2
		c22.8,0,40.7,9.5,40.7,33.8v47.9c0,2.7-2.1,4.8-4.8,4.8h-14.9c-2.7,0-4.8-2.1-4.8-4.8v-2.4c-7.1,5.1-15.8,8.7-28.1,8.7
		c-20.8,0-36.6-9.4-36.6-27.3c0-17.9,15.8-26.9,36.6-26.9h25.7c0-12.4-5.2-16.2-15.8-16.2C416,200.6,410.1,202.5,407.4,205.9z
		 M438.3,246.4v-12h-23.8c-7.4,0-11.7,4.1-11.7,9.4c0,5.5,4.3,9.7,12.5,9.7C424.9,253.4,432.8,249.9,438.3,246.4z"/>
	<path class="st0" d="M517.4,271c-22.2,0-33.3-11.1-33.3-34.9v-72.9c0-2.7,2.1-4.8,4.8-4.8h17.3c2.7,0,4.8,2.1,4.8,4.8v25.8h21.6
		c2.7,0,4.8,2.1,4.8,4.8v9.2c0,2.7-2.1,4.8-4.8,4.8h-21.6v28.4c0,10.8,5.5,16.5,13.6,16.5c4.1,0,7.1-1,10.6-1h2.9
		c2.7,0,4.8,2.1,4.8,4.8v8.2c0,2.4-2.1,4.3-4.8,4.8C533.3,270.4,524.6,271,517.4,271z"/>
	<path class="st0" d="M555.5,165.8c0-5.5,3.3-8.9,8.9-8.9h9.7c5.5,0,8.9,3.3,8.9,8.9v2.7c0,5.5-3.3,8.9-8.9,8.9h-9.7
		c-5.5,0-8.9-3.3-8.9-8.9V165.8z M560.5,269.4c-2.7,0-4.8-2.1-4.8-4.8v-73.4c0-2.7,2.1-4.8,4.8-4.8h17.3c2.7,0,4.8,2.1,4.8,4.8v73.4
		c0,2.7-2.1,4.8-4.8,4.8H560.5z"/>
	<path class="st0" d="M624.4,235.2c1.1,12.7,6.8,18.2,19.8,18.2c6.7,0,12.5-1.9,15.2-5.2c2.1-2.5,4.9-4.1,8.9-4.1h11.6
		c2.7,0,4.8,2.1,4.8,4.8c0,16.5-17,22.2-42.3,22.2c-28.2,0-45.2-15.2-45.2-43.9c0-28.5,17.1-44.1,45.2-44.1
		c28.2,0,45.2,15.1,45.2,43v4.4c0,2.7-2.1,4.8-4.8,4.8H624.4z M624.3,218.9h36c-0.5-11.9-6.2-18.2-17.9-18.2
		C630.9,200.6,624.9,207,624.3,218.9z"/>
	<path class="st0" d="M764,220.3c0-13.2-6-18.5-14.7-18.5c-7.8,0-15.1,5.4-20.8,11.1v51.8c0,2.7-2.1,4.8-4.8,4.8h-17.3
		c-2.7,0-4.8-2.1-4.8-4.8v-75.3c0-2.7,2.1-4.8,4.8-4.8h17.3c2.7,0,4.8,2.1,4.8,4.8v4.9c7.3-6.2,15.2-11.3,27.1-11.3
		c20.6,0,35.2,10.9,35.2,37.2v44.4c0,2.7-2.1,4.8-4.8,4.8h-17.3c-2.7,0-4.8-2.1-4.8-4.8V220.3z"/>
	<path class="st0" d="M843.1,271c-22.2,0-33.3-11.1-33.3-34.9v-72.9c0-2.7,2.1-4.8,4.8-4.8h17.3c2.7,0,4.8,2.1,4.8,4.8v25.8h21.6
		c2.7,0,4.8,2.1,4.8,4.8v9.2c0,2.7-2.1,4.8-4.8,4.8h-21.6v28.4c0,10.8,5.5,16.5,13.6,16.5c4.1,0,7.1-1,10.6-1h2.9
		c2.7,0,4.8,2.1,4.8,4.8v8.2c0,2.4-2.1,4.3-4.8,4.8C859,270.4,850.3,271,843.1,271z"/>
</g>
</svg>
